<svg width="134" height="208" viewBox="0 0 134 208" fill="none" xmlns="http://www.w3.org/2000/svg">
<rect x="83.8456" y="146" width="48" height="62" fill="#E5E5E5"/>
<rect x="82.7456" y="54.9" width="50.2" height="101.2" fill="#E5E5E5" stroke="black" stroke-width="0.2"/>
<rect x="100.846" y="208" width="52" height="3" transform="rotate(-90 100.846 208)" fill="#FF0000"/>
<rect x="110.846" y="208" width="52" height="3" transform="rotate(-90 110.846 208)" fill="#FF0000"/>
<rect x="132.846" y="99" width="50" height="6" transform="rotate(-180 132.846 99)" fill="#FF0000"/>
<rect x="105.846" y="208" width="52" height="3" transform="rotate(-90 105.846 208)" fill="black"/>
<rect x="132.846" y="109" width="50" height="6" transform="rotate(-180 132.846 109)" fill="black"/>
<rect x="125.846" y="7" width="36" height="6" transform="rotate(-180 125.846 7)" fill="black"/>
<rect x="123.846" y="1" width="1" height="1" transform="rotate(-180 123.846 1)" fill="black"/>
<rect x="121.846" y="1" width="1" height="1" transform="rotate(-180 121.846 1)" fill="black"/>
<rect x="115.846" y="1" width="1" height="1" transform="rotate(-180 115.846 1)" fill="black"/>
<rect x="113.846" y="1" width="1" height="1" transform="rotate(-180 113.846 1)" fill="black"/>
<rect x="119.846" y="1" width="1" height="1" transform="rotate(-180 119.846 1)" fill="black"/>
<rect x="117.846" y="1" width="1" height="1" transform="rotate(-180 117.846 1)" fill="black"/>
<rect x="111.846" y="1" width="1" height="1" transform="rotate(-180 111.846 1)" fill="black"/>
<rect x="109.846" y="1" width="1" height="1" transform="rotate(-180 109.846 1)" fill="black"/>
<rect x="103.846" y="1" width="1" height="1" transform="rotate(-180 103.846 1)" fill="black"/>
<rect x="101.846" y="1" width="1" height="1" transform="rotate(-180 101.846 1)" fill="black"/>
<rect x="107.846" y="1" width="1" height="1" transform="rotate(-180 107.846 1)" fill="black"/>
<rect x="105.846" y="1" width="1" height="1" transform="rotate(-180 105.846 1)" fill="black"/>
<rect x="101.846" y="1" width="1" height="1" transform="rotate(-180 101.846 1)" fill="black"/>
<rect x="99.8456" y="1" width="1" height="1" transform="rotate(-180 99.8456 1)" fill="black"/>
<rect x="93.8456" y="1" width="1" height="1" transform="rotate(-180 93.8456 1)" fill="black"/>
<rect x="91.8456" y="1" width="1" height="1" transform="rotate(-180 91.8456 1)" fill="black"/>
<rect x="97.8456" y="1" width="1" height="1" transform="rotate(-180 97.8456 1)" fill="black"/>
<rect x="95.8456" y="1" width="1" height="1" transform="rotate(-180 95.8456 1)" fill="black"/>
<rect x="97.8456" y="44" width="23" height="11" fill="#76461B"/>
<rect x="91.8456" y="6" width="32" height="38" fill="#76461B"/>
<rect x="16.1613" y="103.919" width="105.668" height="14" transform="rotate(-20 16.1613 103.919)" fill="#76461B"/>
<path d="M3.39934e-06 104.424L14.9028 99L21.4187 116.902L6.51587 122.326L3.39934e-06 104.424Z" fill="#76461B"/>
<rect x="7.84561" y="96.4751" width="4.31294" height="9.81079" transform="rotate(-20 7.84561 96.4751)" fill="#76461B"/>
<rect x="102.846" y="17" width="3" height="3" transform="rotate(-180 102.846 17)" fill="black"/>
<rect x="96.8456" y="37" width="5" height="1" transform="rotate(-180 96.8456 37)" fill="black"/>
<rect x="97.8456" y="36" width="1" height="1" transform="rotate(-180 97.8456 36)" fill="black"/>
<rect x="98.8456" y="35" width="1" height="1" transform="rotate(-180 98.8456 35)" fill="black"/>
<rect x="93.8456" y="25" width="1" height="1" transform="rotate(-180 93.8456 25)" fill="black"/>
<rect x="92.8456" y="24" width="1" height="2" transform="rotate(-180 92.8456 24)" fill="black"/>
</svg>
